<?xml version="1.0" standalone="no"?>
<!DOCTYPE svg PUBLIC "-//W3C//DTD SVG 20010904//EN"
 "http://www.w3.org/TR/2001/REC-SVG-20010904/DTD/svg10.dtd">
<svg version="1.0" xmlns="http://www.w3.org/2000/svg"
 width="200.000000pt" height="200.000000pt" viewBox="0 0 200.000000 200.000000"
 preserveAspectRatio="xMidYMid meet">
<metadata>
Created by potrace 1.14, written by Peter Selinger 2001-2017
</metadata>
<g transform="translate(0.000000,200.000000) scale(0.100000,-0.100000)"
fill="#000000" stroke="none">
<path d="M0 1000 l0 -1000 1000 0 1000 0 0 1000 0 1000 -1000 0 -1000 0 0
-1000z m1144 835 c189 -33 337 -108 479 -244 52 -50 66 -81 15 -35 -18 16 -27
22 -20 14 6 -8 12 -24 12 -37 0 -13 6 -23 13 -23 7 -1 5 -6 -5 -14 -10 -7 -15
-16 -11 -19 3 -4 1 -7 -5 -7 -15 0 -24 17 -13 25 6 3 8 12 4 21 -5 14 -18 11
-18 -4 0 -4 -4 -13 -9 -20 -20 -32 14 -48 57 -27 6 4 3 0 -8 -9 -11 -8 -25
-20 -32 -26 -17 -14 -23 -13 -23 7 0 9 -3 14 -6 10 -3 -3 -16 -2 -28 3 -17 6
-25 4 -35 -12 -12 -19 -11 -20 12 -14 20 5 25 2 23 -11 -3 -20 -21 -28 -30
-14 -4 6 -14 7 -23 4 -12 -5 -15 -2 -10 10 3 9 3 16 -1 15 -4 0 -18 3 -31 9
-21 8 -22 10 -6 16 14 6 15 10 5 23 -11 12 -15 12 -21 2 -7 -11 -9 -11 -9 0 0
7 -5 10 -10 7 -19 -12 -37 14 -34 45 2 17 -1 30 -7 30 -6 0 -7 5 -4 10 9 14
-2 12 -28 -4 -34 -22 -71 -31 -62 -16 5 9 4 11 -4 6 -6 -4 -17 -3 -24 2 -48
37 -111 10 -101 -45 5 -27 5 -27 -10 -8 -12 14 -14 15 -10 4 3 -10 1 -20 -5
-24 -6 -3 -11 -1 -11 6 0 7 -3 9 -6 6 -4 -4 -1 -14 7 -23 10 -13 11 -18 2 -21
-7 -2 -9 -11 -6 -19 3 -8 1 -14 -5 -14 -5 0 -9 -8 -8 -17 0 -10 -5 -17 -12
-15 -10 2 -10 -2 -2 -18 12 -22 1 -27 -19 -7 -11 10 -11 8 -2 -10 16 -32 14
-38 -8 -19 -13 12 -21 14 -26 6 -3 -5 -10 -8 -14 -6 -4 3 -8 -2 -8 -10 0 -10
4 -11 11 -4 5 5 15 10 21 10 5 0 -5 -10 -22 -21 -18 -12 -30 -26 -27 -32 3 -7
-2 -3 -10 7 -9 11 -16 14 -16 7 0 -7 -4 -9 -10 -6 -5 3 -10 0 -10 -7 -1 -8 -5
-7 -14 5 -20 26 -69 18 -71 -11 -2 -24 10 -30 18 -9 4 9 6 9 6 -1 1 -7 -9 -16
-21 -21 -14 -5 -18 -10 -10 -15 7 -4 10 -12 6 -17 -3 -5 -10 -6 -16 -3 -6 4
-8 1 -6 -7 3 -8 11 -13 17 -11 7 1 10 -2 6 -7 -3 -6 -12 -8 -19 -5 -7 3 -16
-2 -19 -10 -7 -17 -37 -22 -37 -6 0 5 6 7 14 4 7 -3 16 1 19 9 7 19 -11 16
-42 -5 -13 -9 -20 -21 -16 -27 3 -6 -1 -11 -9 -11 -8 0 -18 -5 -22 -12 -4 -6
-3 -8 3 -5 12 8 23 -14 23 -47 0 -34 -11 -38 -37 -14 -21 19 -23 20 -23 4 0
-12 -5 -16 -14 -13 -8 3 -17 1 -20 -6 -2 -7 -5 -1 -6 13 -1 14 -4 19 -7 12 -4
-10 -8 -10 -20 0 -12 10 -14 9 -11 -6 2 -12 -4 -20 -14 -21 -11 -2 -15 2 -11
11 4 12 0 12 -21 5 -16 -7 -27 -7 -31 -1 -4 6 -1 10 5 10 6 0 8 5 4 11 -4 8
-9 7 -15 -2 -5 -8 -9 -10 -9 -5 0 5 -6 3 -13 -3 -8 -6 -17 -8 -20 -4 -4 3 -7
2 -7 -4 0 -5 -7 -10 -15 -10 -8 0 -15 5 -15 11 0 6 -5 4 -10 -4 -9 -13 -11
-13 -19 0 -5 8 -7 18 -5 22 3 4 0 8 -5 8 -6 0 -10 6 -8 13 3 17 -35 9 -51 -11
-7 -9 -17 -16 -22 -15 -5 2 -7 -7 -4 -20 3 -12 7 -49 8 -82 3 -51 2 -56 -7
-35 -6 14 -16 28 -21 31 -12 9 1 42 14 34 14 -8 13 8 -1 22 -7 7 -13 22 -14
35 -4 41 -5 43 -16 25 -6 -9 -7 -26 -4 -37 4 -12 2 -20 -5 -20 -7 0 -10 -8 -7
-20 3 -11 2 -18 -2 -15 -5 2 -7 -12 -6 -33 4 -59 4 -62 19 -62 8 0 16 -6 19
-12 3 -10 8 -9 22 2 17 14 18 13 12 -4 -8 -20 17 -56 37 -56 6 0 4 5 -4 10 -8
5 -11 10 -6 10 5 0 3 7 -4 15 -7 8 -9 15 -4 15 4 0 17 -12 29 -26 20 -25 55
-26 55 -2 0 6 -6 5 -15 -2 -15 -12 -35 -6 -35 12 0 7 5 6 15 -2 12 -10 16 -9
21 4 15 38 43 -4 50 -76 4 -34 2 -36 -21 -33 -16 1 -25 -3 -25 -12 0 -8 -3
-12 -7 -10 -12 7 -13 -46 -2 -60 12 -14 -6 -28 -22 -17 -8 4 -8 0 0 -15 7 -11
14 -21 17 -21 3 0 2 4 -1 10 -3 5 -1 10 6 10 7 0 9 -8 6 -21 -4 -16 -3 -18 7
-9 15 12 33 -5 31 -30 -1 -8 2 -22 6 -31 6 -12 2 -15 -22 -11 -17 3 -29 0 -29
-7 0 -13 -22 -10 -32 4 -4 5 -10 6 -15 2 -12 -12 17 -26 45 -21 22 4 24 3 12
-11 -7 -9 -19 -14 -26 -11 -8 3 -11 0 -7 -9 3 -8 10 -12 17 -8 6 3 8 3 4 -2
-4 -4 -3 -17 3 -28 7 -12 7 -17 1 -13 -13 8 -20 -13 -17 -47 2 -15 1 -27 -1
-27 -10 0 -79 82 -123 146 -60 89 -105 195 -126 303 -23 112 -16 304 14 409
54 186 172 354 336 477 64 48 213 121 265 130 22 4 38 10 35 15 -3 4 3 6 12 4
10 -2 38 0 63 5 70 14 169 12 264 -4z m56 -295 c0 -4 -9 -6 -21 -3 -15 4 -17
8 -8 14 14 8 29 3 29 -11z m268 -135 c-3 -3 -9 2 -12 12 -6 14 -5 15 5 6 7 -7
10 -15 7 -18z m-208 -105 c0 -5 -4 -10 -9 -10 -6 0 -13 5 -16 10 -3 6 1 10 9
10 9 0 16 -4 16 -10z m-100 -20 c0 -5 -4 -10 -9 -10 -6 0 -13 5 -16 10 -3 6 1
10 9 10 9 0 16 -4 16 -10z m-178 -122 c-9 -9 -15 -9 -24 0 -9 9 -7 12 12 12
19 0 21 -3 12 -12z m103 -29 c-10 -15 -25 -10 -19 6 4 8 10 12 15 9 5 -3 7
-10 4 -15z m88 -18 c-4 -3 -11 -10 -15 -15 -4 -4 -6 1 -5 12 1 12 6 18 15 15
7 -3 10 -9 5 -12z m17 -15 c0 -2 -8 -10 -17 -17 -16 -13 -17 -12 -4 4 13 16
21 21 21 13z m-670 -56 c0 -11 -4 -20 -9 -20 -7 0 -8 17 -2 38 4 10 11 -2 11
-18z m-93 -42 c-3 -7 -5 -2 -5 12 0 14 2 19 5 13 2 -7 2 -19 0 -25z m129 -5
c-11 -11 -17 4 -9 23 7 18 8 18 11 1 2 -10 1 -21 -2 -24z m40 18 c-4 -5 -1
-12 4 -14 6 -3 5 -4 -2 -3 -15 3 -23 26 -8 26 6 0 9 -4 6 -9z m344 -1 c0 -5
-4 -10 -10 -10 -5 0 -10 5 -10 10 0 6 5 10 10 10 6 0 10 -4 10 -10z m-65 -9
c-3 -6 3 -14 12 -20 16 -9 16 -10 -3 -11 -23 0 -48 23 -37 33 10 11 35 8 28
-2z m-279 -89 c-10 -34 -11 -34 -17 -11 -4 13 -7 18 -8 12 -2 -24 -16 -13 -16
11 0 20 5 24 26 24 25 -1 26 -2 15 -36z m173 4 c-3 -3 -11 5 -18 17 -13 21
-12 21 5 5 10 -10 16 -20 13 -22z m-118 -109 c-10 -9 -11 -8 -5 6 3 10 9 15
12 12 3 -3 0 -11 -7 -18z m-179 -311 c7 4 8 2 4 -5 -9 -13 -26 -5 -25 12 0 9
2 8 6 -1 2 -6 10 -9 15 -6z"/>
<path d="M1531 1627 c2 -1 13 -9 24 -17 19 -14 19 -14 6 3 -7 9 -18 17 -24 17
-6 0 -8 -1 -6 -3z"/>
<path d="M1580 1600 c0 -5 5 -10 11 -10 5 0 7 5 4 10 -3 6 -8 10 -11 10 -2 0
-4 -4 -4 -10z"/>
<path d="M1405 1580 c3 -5 -2 -10 -12 -11 -10 0 -13 -3 -6 -5 7 -3 9 -12 6
-20 -3 -8 0 -14 5 -14 6 0 13 -8 16 -18 3 -10 14 -18 24 -18 10 0 19 8 19 18
1 10 -3 18 -9 18 -6 0 -9 3 -6 6 4 3 18 -2 32 -12 15 -9 29 -14 32 -11 3 3 -8
13 -25 23 -17 10 -34 26 -37 36 -3 10 -14 18 -25 18 -11 0 -17 -4 -14 -10z"/>
<path d="M1298 1573 c7 -3 16 -2 19 1 4 3 -2 6 -13 5 -11 0 -14 -3 -6 -6z"/>
<path d="M1590 1571 c0 -6 4 -13 10 -16 6 -3 7 1 4 9 -7 18 -14 21 -14 7z"/>
<path d="M1541 1531 c-9 -6 -6 -8 13 -8 14 0 23 3 20 8 -7 11 -15 11 -33 0z"/>
<path d="M1473 1471 c1 -11 7 -23 14 -26 11 -4 11 0 2 18 -16 31 -18 32 -16 8z"/>
<path d="M746 1437 c3 -10 9 -15 12 -12 3 3 0 11 -7 18 -10 9 -11 8 -5 -6z"/>
<path d="M1028 1443 c6 -2 9 -9 6 -14 -3 -6 -11 -5 -20 2 -8 6 -14 9 -14 6 0
-2 6 -10 13 -16 11 -8 18 -6 32 9 18 19 17 20 -6 19 -13 0 -18 -3 -11 -6z"/>
<path d="M883 1408 c-25 -12 -31 -30 -10 -27 36 4 40 -1 18 -25 -23 -24 -14
-46 12 -29 6 4 14 8 17 8 3 0 15 9 27 20 28 26 16 50 -21 41 -20 -5 -24 -3
-20 9 7 17 7 17 -23 3z"/>
<path d="M864 1364 c-18 -14 -18 -15 4 -4 12 6 22 13 22 15 0 8 -5 6 -26 -11z"/>
<path d="M709 1343 c-13 -16 -12 -17 4 -4 9 7 17 15 17 17 0 8 -8 3 -21 -13z"/>
<path d="M825 1340 c3 -5 11 -10 16 -10 6 0 7 5 4 10 -3 6 -11 10 -16 10 -6 0
-7 -4 -4 -10z"/>
<path d="M290 1255 c0 -5 5 -17 10 -25 5 -8 10 -10 10 -5 0 6 -5 17 -10 25 -5
8 -10 11 -10 5z"/>
<path d="M326 1224 c-5 -14 -4 -15 9 -4 17 14 19 20 6 20 -5 0 -12 -7 -15 -16z"/>
<path d="M297 1189 c4 -13 8 -18 11 -10 2 7 -1 18 -6 23 -8 8 -9 4 -5 -13z"/>
<path d="M375 1190 c-3 -5 -3 -14 0 -20 3 -5 2 -10 -4 -10 -5 0 -12 5 -14 10
-3 6 -4 5 -3 -2 1 -7 11 -15 21 -17 14 -2 16 1 11 15 -4 10 -1 21 6 26 9 5 10
8 1 8 -6 0 -15 -4 -18 -10z"/>
<path d="M328 1104 c5 -29 8 -30 15 -5 3 11 -1 22 -8 24 -8 4 -10 -3 -7 -19z"/>
<path d="M365 1120 c-3 -5 -1 -10 4 -10 6 0 11 5 11 10 0 6 -2 10 -4 10 -3 0
-8 -4 -11 -10z"/>
<path d="M710 1096 c0 -2 7 -6 15 -10 8 -3 15 -1 15 4 0 6 -7 10 -15 10 -8 0
-15 -2 -15 -4z"/>
<path d="M244 1061 c0 -11 5 -17 13 -14 10 4 11 9 2 19 -15 18 -15 18 -15 -5z"/>
<path d="M240 960 c0 -5 5 -10 10 -10 6 0 10 5 10 10 0 6 -4 10 -10 10 -5 0
-10 -4 -10 -10z"/>
<path d="M280 873 c0 -7 5 -15 10 -18 6 -4 7 -12 4 -18 -5 -8 -2 -8 7 1 11 10
10 15 -4 29 -10 10 -17 12 -17 6z"/>
<path d="M330 779 c0 -5 5 -7 10 -4 6 3 10 8 10 11 0 2 -4 4 -10 4 -5 0 -10
-5 -10 -11z"/>
<path d="M435 781 c-3 -6 3 -9 14 -8 11 0 17 5 15 9 -7 11 -22 10 -29 -1z"/>
<path d="M442 578 c2 -15 7 -30 11 -34 3 -3 4 6 1 22 -7 37 -16 47 -12 12z"/>
<path d="M333 485 c0 -8 4 -12 9 -9 5 3 6 10 3 15 -9 13 -12 11 -12 -6z"/>
<path d="M367 484 c-3 -4 -3 -14 2 -23 4 -9 7 -28 6 -44 -1 -15 4 -32 12 -38
9 -9 13 -8 13 0 0 6 -5 11 -12 11 -9 0 -9 3 0 12 9 9 9 15 -1 27 -10 12 -9 14
6 8 9 -3 17 -2 17 3 0 6 -5 10 -10 10 -6 0 -14 9 -18 20 -4 12 -11 18 -15 14z"/>
</g>
</svg>
